<?xml version="1.0" encoding="utf-8"?>
<svg version="1.1" xmlns="http://www.w3.org/2000/svg" xmlns:xlink="http://www.w3.org/1999/xlink" height="200" width="200">
  <defs>
    <path id="path-0" opacity="1" fill-rule="evenodd" d="M180,100 C180,144.15320195952 144.15320195952003,166.5 100,166.5 C55.84679804048003,166.5 15.000000000000014,144.15320195952 15,100 C15,55.846798040479996 55.84679804047999,20.000000000000014 99.99999999999999,20 C144.15320195952,20 180,55.84679804048 180,100Z"/>
    <mask id="mask-1" maskUnits="userSpaceOnUse" maskContentUnits="userSpaceOnUse">
      <rect opacity="1" x="0" y="0" width="200" height="200" fill="black"/>
      <use xlink:href="#path-0" fill="white"/>
    </mask>
    <ellipse id="ellipse-2" opacity="1" rx="18.71104041790545" ry="27.230427411786877" cx="123.49192945443775" cy="79.333028540356"/>
    <ellipse id="ellipse-3" opacity="1" rx="18.71104041790545" ry="27.230427411786877" cx="52.49192945443775" cy="78.333028540356"/>
    <ellipse id="ellipse-4" opacity="1" rx="22.393125092674154" ry="13.58232515342317" cx="48.81086497203887" cy="30.2172706975442"/>
    <ellipse id="ellipse-5" opacity="1" rx="25" ry="20.5" cx="154" cy="40.5"/>
    <path id="path-6" opacity="1" fill-rule="evenodd" d="M86.49999999999991,115.50000000000001 C80.5,114.00000000000001 78,108.41532019595199 78,104 C78,99.58467980404801 83.15297721831888,98 89.49999999999974,98 C93.25664920519743,98 99.9999999999994,100 99.99999999999955,104.5 C99.99999999999969,109 98.49999999999963,111.50000000000004 95.49999999999991,114.00000000000001 C92.0207206077823,116.89939949351493 86.49999999999991,115.50000000000001 86.49999999999991,115.50000000000001Z"/>
    <path id="path-7" opacity="1" fill-rule="evenodd" d="M74,172.00718688964844 C74,168.1947784423828 78.0955581665039,165.78492736816406 81.42821502685547,167.63641357421875 L92,173.50961303710938 L92,173.5 L107,173.5 L107,173.50961303710938 L117.57178497314453,167.63641357421875 C120.9044418334961,165.78492736816406 125,168.1947784423828 125,172.00718688964844 L125,188.01205444335938 C125,191.824462890625 120.9044418334961,194.23431396484375 117.57178497314453,192.38282775878906 L107,186.50961303710938 L107,186.5 L92,186.5 L92,186.50961303710938 L81.42821502685547,192.38282775878906 C78.0955581665039,194.23431396484375 74,191.824462890625 74,188.01205444335938 L74,172.00718688964844Z"/>
  </defs>
  <g>
    <g opacity="1">
      <use xlink:href="#path-0" fill="rgb(255,255,255)" fill-opacity="1"/>
      <use xlink:href="#path-0" fill-opacity="0" stroke="rgb(0,0,0)" stroke-opacity="1" stroke-width="20" stroke-linecap="butt" stroke-linejoin="miter" mask="url(#mask-1)"/>
    </g>
    <g transform="translate(123.49192945443775, 79.333028540356) rotate(344.0001230020735) translate(-123.49192945443775, -79.333028540356)" opacity="1">
      <use xlink:href="#ellipse-2" fill="rgb(0,0,0)" fill-opacity="1"/>
    </g>
    <g transform="translate(52.49192945443775, 78.333028540356) scale(-1, 1) translate(-52.49192945443775, -78.333028540356) translate(52.49192945443775, 78.333028540356) rotate(344.0001230020735) translate(-52.49192945443775, -78.333028540356)" opacity="1">
      <use xlink:href="#ellipse-3" fill="rgb(0,0,0)" fill-opacity="1"/>
    </g>
    <g transform="translate(48.81086497203887, 30.2172706975442) rotate(326.00011656591846) translate(-48.81086497203887, -30.2172706975442)" opacity="1">
      <use xlink:href="#ellipse-4" fill="rgb(0,0,0)" fill-opacity="1"/>
    </g>
    <g opacity="1">
      <use xlink:href="#ellipse-5" fill="rgb(0,0,0)" fill-opacity="1"/>
    </g>
    <g opacity="1">
      <use xlink:href="#path-6" fill="rgb(0,0,0)" fill-opacity="1"/>
    </g>
    <g>
      <use xlink:href="#path-7" fill="rgb(0,0,0)" fill-opacity="1"/>
    </g>
  </g>
</svg>